# Created by FreeCAD <http://www.freecadweb.org>
v -0.007990 -0.047761 -0.054200
v -0.007990 -0.047761 0.018000
v -0.007990 0.047739 -0.054200
v -0.007990 0.047739 0.018000
v 0.189500 -0.047761 -0.054200
v 0.189500 -0.047761 0.018000
v 0.189500 0.047739 -0.054200
v 0.189500 0.047739 0.018000
vn -1.000000 0.000000 0.000000
vn -1.000000 0.000000 0.000000
vn -0.000000 1.000000 0.000000
vn 0.000000 1.000000 0.000000
vn 1.000000 0.000000 0.000000
vn 1.000000 0.000000 -0.000000
vn -0.000000 -1.000000 0.000000
vn 0.000000 -1.000000 0.000000
vn 0.000000 0.000000 -1.000000
vn 0.000000 0.000000 -1.000000
vn 0.000000 0.000000 1.000000
vn -0.000000 0.000000 1.000000
f 2//1 4//1 3//1
f 1//2 2//2 3//2
f 4//3 8//3 7//3
f 3//4 4//4 7//4
f 8//5 6//5 5//5
f 7//6 8//6 5//6
f 6//7 2//7 1//7
f 5//8 6//8 1//8
f 3//9 7//9 5//9
f 1//10 3//10 5//10
f 2//11 6//11 8//11
f 4//12 2//12 8//12
