# Created by FreeCAD <http://www.freecadweb.org>
v -0.013988 0.000585 -0.014214
v -0.013988 0.000585 0.014216
v -0.012893 0.005201 -0.014214
v -0.012893 0.005201 0.014216
v -0.012814 -0.005639 -0.014214
v -0.012814 -0.005639 0.014216
v -0.009764 0.009267 -0.014214
v -0.009764 0.009267 0.014216
v -0.009018 -0.010708 -0.014214
v -0.009018 -0.010708 0.014216
v -0.003377 -0.013587 -0.014214
v -0.003377 -0.013587 0.014216
v -0.001775 0.016013 -0.014214
v -0.001775 0.016013 0.014216
v 0.002956 -0.013684 -0.014214
v 0.002956 -0.013684 0.014216
v 0.008083 0.021729 -0.014214
v 0.008083 0.021729 0.014216
v 0.008683 -0.010982 -0.014214
v 0.008683 -0.010982 0.014216
v 0.014020 0.024137 -0.014214
v 0.014020 0.024137 0.014216
v 0.016123 -0.005100 -0.014214
v 0.016123 -0.005100 0.014216
v 0.019240 -0.003432 -0.014214
v 0.019240 -0.003432 0.014216
v 0.020074 0.025684 -0.014214
v 0.020074 0.025684 0.014216
v 0.022743 -0.002953 -0.014214
v 0.022743 -0.002953 0.014216
v 0.022764 -0.002453 0.000000
v 0.022821 -0.001068 -0.006074
v 0.022821 -0.001068 0.006074
v 0.022984 0.002814 -0.010946
v 0.022984 0.002814 0.010946
v 0.023218 0.008422 -0.013649
v 0.023218 0.008422 0.013649
v 0.023478 0.014647 -0.013649
v 0.023478 0.014647 0.013649
v 0.023713 0.020256 -0.010946
v 0.023713 0.020256 0.010946
v 0.023875 0.024137 -0.006074
v 0.023875 0.024137 0.006074
v 0.023933 0.025523 -0.014214
v 0.023933 0.025523 0.000000
v 0.023933 0.025523 0.014216
v 0.248692 -0.012567 -0.014214
v 0.248692 -0.012567 0.014216
v 0.248720 -0.011899 0.000000
v 0.248778 -0.010514 -0.006074
v 0.248778 -0.010514 0.006074
v 0.248940 -0.006633 -0.010946
v 0.248940 -0.006633 0.010946
v 0.249175 -0.001024 -0.013649
v 0.249175 -0.001024 0.013649
v 0.249435 0.005201 -0.013649
v 0.249435 0.005201 0.013649
v 0.249669 0.010810 -0.010946
v 0.249669 0.010810 0.010946
v 0.249832 0.014691 -0.006074
v 0.249832 0.014691 0.006074
v 0.249890 0.016076 0.000000
v 0.249918 0.016744 -0.014214
v 0.249918 0.016744 0.014216
v 0.298354 -0.014643 -0.014214
v 0.298354 -0.014643 0.014216
v 0.299580 0.014668 -0.014214
v 0.299580 0.014668 0.014216
v 0.304876 -0.013555 -0.014214
v 0.304876 -0.013555 0.014216
v 0.305987 0.013039 -0.014214
v 0.305987 0.013039 0.014216
v 0.310257 -0.009714 -0.014214
v 0.310257 -0.009714 0.014216
v 0.311029 0.008762 -0.014214
v 0.311029 0.008762 0.014216
v 0.313405 -0.003900 -0.014214
v 0.313405 -0.003900 0.014216
v 0.313681 0.002706 -0.014214
v 0.313681 0.002706 0.014216
vn 0.041771 0.999127 0.000000
vn 0.041771 0.999127 0.000000
vn 0.041771 0.999127 0.000000
vn 0.999127 -0.041775 0.000000
vn 0.999127 -0.041770 -0.000001
vn 0.999127 -0.041770 0.000001
vn 0.999127 -0.041775 0.000000
vn 0.999127 -0.041772 -0.000000
vn 0.999127 -0.041768 0.000000
vn 0.999127 -0.041772 0.000000
vn 0.999127 -0.041770 0.000001
vn 0.999127 -0.041768 0.000040
vn 0.999127 -0.041770 -0.000004
vn 0.999127 -0.041770 0.000000
vn 0.999127 -0.041770 -0.000000
vn 0.999127 -0.041770 0.000000
vn 0.999127 -0.041770 -0.000000
vn 0.999127 -0.041770 0.000004
vn 0.999127 -0.041768 -0.000040
vn 0.999127 -0.041770 -0.000001
vn -0.247601 0.968862 0.000000
vn -0.247601 0.968862 0.000000
vn -0.972999 0.230809 0.000000
vn -0.972999 0.230809 0.000000
vn -0.792510 0.609859 0.000000
vn -0.792510 0.609859 0.000000
vn -0.645130 0.764073 0.000000
vn -0.645130 0.764073 0.000000
vn -0.501673 0.865058 0.000000
vn -0.501673 0.865058 0.000000
vn -0.375778 0.926710 0.000000
vn -0.375778 0.926710 0.000000
vn 0.426733 -0.904378 0.000000
vn 0.426733 -0.904378 0.000000
vn -0.015446 -0.999881 0.000000
vn -0.015446 -0.999881 0.000000
vn -0.454463 -0.890766 0.000000
vn -0.454463 -0.890766 0.000000
vn -0.800478 -0.599362 0.000000
vn -0.800478 -0.599362 0.000000
vn -0.982682 -0.185302 0.000000
vn -0.982682 -0.185302 0.000000
vn 0.620233 -0.784418 0.000000
vn 0.620233 -0.784418 0.000000
vn 0.135505 -0.990777 0.000000
vn 0.135505 -0.990777 0.000000
vn 0.471802 -0.881705 0.000000
vn 0.471802 -0.881705 0.000000
vn 0.000000 0.000000 -1.000000
vn 0.000000 0.000000 -1.000000
vn 0.000000 0.000000 -1.000000
vn 0.000000 0.000000 -1.000000
vn 0.000000 0.000000 -1.000000
vn 0.000000 0.000000 -1.000000
vn 0.000000 0.000000 -1.000000
vn 0.000000 0.000000 -1.000000
vn 0.000000 0.000000 -1.000000
vn 0.000000 0.000000 -1.000000
vn 0.000000 0.000000 -1.000000
vn 0.000000 0.000000 -1.000000
vn 0.000000 0.000000 -1.000000
vn 0.000000 0.000000 -1.000000
vn 0.000000 -0.000000 1.000000
vn -0.000000 0.000000 1.000000
vn 0.000000 -0.000000 1.000000
vn -0.000000 0.000000 1.000000
vn 0.000000 -0.000000 1.000000
vn -0.000000 0.000000 1.000000
vn 0.000000 -0.000000 1.000000
vn 0.000000 0.000000 1.000000
vn -0.000000 0.000000 1.000000
vn -0.000000 0.000000 1.000000
vn 0.000000 0.000000 1.000000
vn 0.000000 0.000000 1.000000
vn 0.000000 0.000000 1.000000
vn 0.000000 0.000000 1.000000
vn -0.040722 -0.974077 0.222520
vn -0.032657 -0.781149 0.623490
vn -0.032657 -0.781150 0.623489
vn -0.018123 -0.433505 0.900969
vn -0.018123 -0.433505 0.900969
vn 0.000000 0.000000 1.000000
vn 0.000000 0.000000 1.000000
vn 0.018123 0.433505 0.900969
vn 0.018123 0.433505 0.900969
vn 0.032657 0.781150 0.623489
vn 0.032657 0.781149 0.623489
vn 0.040722 0.974077 0.222522
vn 0.040722 0.974077 0.222521
vn 0.040722 0.974077 -0.222522
vn 0.040722 0.974077 -0.222521
vn 0.032657 0.781150 -0.623489
vn 0.032657 0.781149 -0.623489
vn 0.018123 0.433505 -0.900969
vn 0.018123 0.433505 -0.900969
vn 0.000000 0.000000 -1.000000
vn 0.000000 0.000000 -1.000000
vn -0.018123 -0.433505 -0.900969
vn -0.018123 -0.433505 -0.900969
vn -0.032657 -0.781149 -0.623490
vn -0.032657 -0.781150 -0.623489
vn -0.040722 -0.974077 -0.222520
vn -0.040722 -0.974077 -0.222520
vn -0.040722 -0.974077 0.222520
vn 0.000000 0.000000 -1.000000
vn -0.000000 0.000000 -1.000000
vn 0.000000 0.000000 -1.000000
vn 0.000000 0.000000 -1.000000
vn -0.000000 0.000000 -1.000000
vn -0.000000 0.000000 -1.000000
vn -0.000000 0.000000 -1.000000
vn -0.000000 0.000000 -1.000000
vn -0.041770 -0.999127 0.000000
vn -0.041770 -0.999127 -0.000000
vn 0.000000 0.000000 1.000000
vn 0.000000 0.000000 1.000000
vn 0.000000 0.000000 1.000000
vn 0.000000 0.000000 1.000000
vn 0.000000 0.000000 1.000000
vn 0.000000 0.000000 1.000000
vn 0.000000 0.000000 1.000000
vn 0.000000 0.000000 1.000000
vn 0.041769 0.999127 0.000000
vn 0.041769 0.999127 -0.000000
vn -0.999127 0.041771 0.000001
vn -0.999127 0.041767 -0.000000
vn -0.999127 0.041772 0.000000
vn -0.999127 0.041767 0.000000
vn -0.999127 0.041776 -0.000000
vn -0.999127 0.041773 0.000000
vn -0.999127 0.041776 0.000000
vn -0.999127 0.041767 -0.000002
vn -0.999127 0.041771 -0.000001
vn -0.999127 0.041770 0.000002
vn -0.999127 0.041770 0.000001
vn -0.999127 0.041770 -0.000003
vn -0.999127 0.041770 0.000002
vn -0.999127 0.041767 0.000002
vn -0.999127 0.041770 -0.000002
vn -0.999127 0.041770 0.000001
vn -0.999127 0.041770 -0.000003
vn -0.999127 0.041770 -0.000002
vn 0.246422 0.969163 0.000000
vn 0.246422 0.969163 -0.000000
vn 0.646908 0.762568 0.000000
vn 0.646908 0.762568 -0.000000
vn 0.916022 0.401127 0.000000
vn 0.916022 0.401127 -0.000000
vn 0.999127 -0.041769 0.000000
vn 0.999127 -0.041769 0.000000
vn 0.879345 -0.476185 0.000000
vn 0.879345 -0.476185 0.000000
vn 0.580999 -0.813905 0.000000
vn 0.580999 -0.813905 0.000000
vn 0.164673 -0.986348 0.000000
vn 0.164673 -0.986348 0.000000
f 45//1 44//1 27//1
f 28//2 45//2 27//2
f 46//3 45//3 28//3
f 43//4 45//4 46//4
f 41//5 43//5 46//5
f 42//6 40//6 44//6
f 45//7 42//7 44//7
f 31//8 33//8 30//8
f 29//9 31//9 30//9
f 32//10 31//10 29//10
f 44//11 40//11 38//11
f 36//12 44//12 38//12
f 29//13 44//13 36//13
f 34//14 29//14 36//14
f 32//15 29//15 34//15
f 30//16 33//16 35//16
f 37//17 30//17 35//17
f 46//18 30//18 37//18
f 39//19 46//19 37//19
f 41//20 46//20 39//20
f 21//21 22//21 28//21
f 27//22 21//22 28//22
f 4//23 1//23 2//23
f 3//24 1//24 4//24
f 8//25 3//25 4//25
f 7//26 3//26 8//26
f 14//27 7//27 8//27
f 13//28 7//28 14//28
f 18//29 13//29 14//29
f 17//30 13//30 18//30
f 22//31 17//31 18//31
f 21//32 17//32 22//32
f 16//33 19//33 20//33
f 15//34 19//34 16//34
f 12//35 15//35 16//35
f 11//36 15//36 12//36
f 10//37 11//37 12//37
f 9//38 11//38 10//38
f 6//39 9//39 10//39
f 5//40 9//40 6//40
f 2//41 5//41 6//41
f 1//42 5//42 2//42
f 19//43 23//43 24//43
f 20//44 19//44 24//44
f 25//45 29//45 30//45
f 26//46 25//46 30//46
f 23//47 25//47 26//47
f 24//48 23//48 26//48
f 27//49 44//49 29//49
f 21//50 27//50 29//50
f 7//51 1//51 3//51
f 19//52 15//52 11//52
f 9//53 19//53 11//53
f 17//54 21//54 29//54
f 25//55 17//55 29//55
f 13//56 17//56 25//56
f 23//57 13//57 25//57
f 7//58 13//58 23//58
f 19//59 7//59 23//59
f 1//60 7//60 19//60
f 9//61 1//61 19//61
f 5//62 1//62 9//62
f 30//63 46//63 28//63
f 22//64 30//64 28//64
f 26//65 30//65 22//65
f 18//66 26//66 22//66
f 24//67 26//67 18//67
f 14//68 24//68 18//68
f 20//69 24//69 14//69
f 20//70 14//70 8//70
f 4//71 20//71 8//71
f 2//72 20//72 4//72
f 10//73 12//73 16//73
f 20//74 10//74 16//74
f 6//75 10//75 20//75
f 2//76 6//76 20//76
f 33//77 31//77 51//77
f 53//78 33//78 51//78
f 35//79 33//79 53//79
f 55//80 35//80 53//80
f 37//81 35//81 55//81
f 57//82 37//82 55//82
f 39//83 37//83 57//83
f 59//84 39//84 57//84
f 41//85 39//85 59//85
f 61//86 41//86 59//86
f 43//87 41//87 61//87
f 62//88 43//88 61//88
f 45//89 43//89 62//89
f 60//90 45//90 62//90
f 42//91 45//91 60//91
f 58//92 42//92 60//92
f 40//93 42//93 58//93
f 56//94 40//94 58//94
f 38//95 40//95 56//95
f 54//96 38//96 56//96
f 36//97 38//97 54//97
f 52//98 36//98 54//98
f 34//99 36//99 52//99
f 50//100 34//100 52//100
f 32//101 34//101 50//101
f 49//102 32//102 50//102
f 31//103 32//103 49//103
f 51//104 31//104 49//104
f 65//105 47//105 63//105
f 67//106 65//106 63//106
f 77//107 75//107 79//107
f 65//108 67//108 71//108
f 75//109 65//109 71//109
f 69//110 65//110 75//110
f 77//111 69//111 75//111
f 73//112 69//112 77//112
f 47//113 65//113 66//113
f 48//114 47//114 66//114
f 48//115 68//115 64//115
f 68//116 48//116 66//116
f 76//117 68//117 66//117
f 72//118 68//118 76//118
f 74//119 78//119 80//119
f 76//120 74//120 80//120
f 70//121 74//121 76//121
f 66//122 70//122 76//122
f 64//123 68//123 67//123
f 63//124 64//124 67//124
f 48//125 53//125 51//125
f 49//126 48//126 51//126
f 47//127 48//127 49//127
f 50//128 47//128 49//128
f 62//129 61//129 64//129
f 63//130 62//130 64//130
f 60//131 62//131 63//131
f 58//132 60//132 63//132
f 47//133 50//133 52//133
f 54//134 47//134 52//134
f 63//135 47//135 54//135
f 56//136 63//136 54//136
f 58//137 63//137 56//137
f 64//138 61//138 59//138
f 57//139 64//139 59//139
f 48//140 64//140 57//140
f 55//141 48//141 57//141
f 53//142 48//142 55//142
f 72//143 67//143 68//143
f 71//144 67//144 72//144
f 76//145 71//145 72//145
f 75//146 71//146 76//146
f 80//147 75//147 76//147
f 79//148 75//148 80//148
f 78//149 79//149 80//149
f 77//150 79//150 78//150
f 74//151 77//151 78//151
f 73//152 77//152 74//152
f 70//153 73//153 74//153
f 69//154 73//154 70//154
f 66//155 69//155 70//155
f 65//156 69//156 66//156
