# Created by FreeCAD <http://www.freecadweb.org>
v -0.018492 -0.003101 -0.004000
v -0.018492 -0.003101 0.004000
v -0.018492 0.003101 -0.004000
v -0.018492 0.003101 0.004000
v -0.016469 -0.008963 -0.004000
v -0.016469 -0.008963 0.004000
v -0.016469 0.008963 -0.004000
v -0.016469 0.008963 0.004000
v -0.012645 0.013845 -0.004000
v -0.012645 0.013845 0.004000
v -0.012645 -0.013845 -0.004000
v -0.012645 -0.013845 0.004000
v -0.007437 0.017212 -0.004000
v -0.007437 0.017212 0.004000
v -0.007437 -0.017212 -0.004000
v -0.007437 -0.017212 0.004000
v -0.001416 -0.018696 -0.004000
v -0.001416 -0.018696 0.004000
v -0.001416 0.018696 -0.004000
v -0.001416 0.018696 0.004000
v 0.004760 -0.018136 -0.004000
v 0.004760 -0.018136 0.004000
v 0.004760 0.018136 -0.004000
v 0.004760 0.018136 0.004000
v 0.010415 -0.015591 -0.004000
v 0.010415 -0.015591 0.004000
v 0.010415 0.015591 -0.004000
v 0.010415 0.015591 0.004000
v 0.140140 -0.012761 -0.004000
v 0.140140 -0.012761 0.004000
v 0.140140 0.012761 -0.004000
v 0.140140 0.012761 0.004000
v 0.159316 -0.012342 -0.010000
v 0.159316 -0.012342 0.010000
v 0.159316 0.012342 -0.010000
v 0.159316 0.012342 0.010000
v 0.175000 -0.012000 -0.010000
v 0.175000 -0.012000 0.010000
v 0.175000 0.012000 -0.010000
v 0.175000 0.012000 0.010000
v 0.179978 0.013000 -0.010000
v 0.179978 0.013000 0.010000
v 0.179978 -0.013000 -0.010000
v 0.179978 -0.013000 0.010000
v 0.184960 -0.012017 -0.010000
v 0.184960 -0.012017 0.010000
v 0.184960 0.012017 -0.010000
v 0.184960 0.012017 0.010000
v 0.189185 0.009200 -0.010000
v 0.189185 0.009200 0.010000
v 0.189185 -0.009200 -0.010000
v 0.189185 -0.009200 0.010000
v 0.192008 -0.004980 -0.010000
v 0.192008 -0.004980 0.010000
v 0.192008 0.004980 -0.010000
v 0.192008 0.004980 0.010000
v 0.193000 0.000000 -0.010000
v 0.193000 0.000000 0.010000
vn 0.000000 0.000000 -1.000000
vn 0.000000 0.000000 -1.000000
vn 0.000000 0.000000 -1.000000
vn 0.000000 0.000000 -1.000000
vn 0.000000 0.000000 -1.000000
vn 0.000000 0.000000 -1.000000
vn 0.000000 -0.000000 -1.000000
vn 0.000000 -0.000000 -1.000000
vn 0.000000 0.000000 -1.000000
vn 0.000000 0.000000 -1.000000
vn 0.000000 0.000000 -1.000000
vn 0.000000 0.000000 -1.000000
vn 0.000000 0.000000 -1.000000
vn 0.000000 0.000000 -1.000000
vn 0.000000 0.000000 1.000000
vn 0.000000 0.000000 1.000000
vn 0.000000 0.000000 1.000000
vn 0.000000 0.000000 1.000000
vn -0.000000 0.000000 1.000000
vn 0.000000 0.000000 1.000000
vn 0.000000 0.000000 1.000000
vn 0.000000 0.000000 1.000000
vn 0.000000 0.000000 1.000000
vn 0.000000 0.000000 1.000000
vn 0.000000 0.000000 1.000000
vn -0.000000 -0.000000 1.000000
vn 0.000000 -0.000000 1.000000
vn 0.000000 -0.000000 1.000000
vn 0.410316 -0.911943 0.000000
vn 0.410316 -0.911943 0.000000
vn 0.090410 -0.995905 0.000000
vn 0.090410 -0.995905 0.000000
vn -0.239385 -0.970925 0.000000
vn -0.239385 -0.970925 0.000000
vn -0.542993 -0.839737 0.000000
vn -0.542993 -0.839737 0.000000
vn -0.787205 -0.616691 0.000000
vn -0.787205 -0.616691 0.000000
vn -0.945305 -0.326186 0.000000
vn -0.945305 -0.326186 0.000000
vn -1.000000 -0.000000 0.000000
vn -1.000000 0.000000 0.000000
vn -0.945305 0.326186 0.000000
vn -0.945305 0.326186 0.000000
vn -0.787205 0.616691 0.000000
vn -0.787205 0.616691 0.000000
vn -0.542994 0.839737 0.000000
vn -0.542994 0.839737 0.000000
vn -0.239385 0.970925 0.000000
vn -0.239385 0.970925 0.000000
vn 0.090411 0.995905 0.000000
vn 0.090411 0.995905 -0.000000
vn 0.410316 0.911943 0.000000
vn 0.410316 0.911943 -0.000000
vn 0.021815 0.999762 0.000000
vn 0.021815 0.999762 -0.000000
vn 0.021815 0.999762 0.000000
vn 0.021815 0.999762 -0.000000
vn 0.021815 0.999762 0.000000
vn 0.021815 0.999762 -0.000000
vn -0.196938 0.980416 0.000000
vn -0.196938 0.980416 0.000000
vn 0.193654 0.981070 0.000000
vn 0.193654 0.981070 -0.000000
vn 0.554700 0.832050 0.000000
vn 0.554700 0.832050 -0.000000
vn 0.831120 0.556093 0.000000
vn 0.831120 0.556093 -0.000000
vn 0.980745 0.195294 0.000000
vn 0.980745 0.195294 -0.000000
vn 0.980745 -0.195294 0.000000
vn 0.980745 -0.195294 0.000000
vn 0.831122 -0.556091 0.000000
vn 0.831122 -0.556091 0.000000
vn 0.554699 -0.832051 0.000000
vn 0.554699 -0.832051 0.000000
vn 0.193655 -0.981070 0.000000
vn 0.193655 -0.981070 0.000000
vn -0.196936 -0.980416 0.000000
vn -0.196936 -0.980416 0.000000
vn 0.021815 -0.999762 0.000000
vn 0.021815 -0.999762 0.000000
vn 0.021815 -0.999762 0.000000
vn 0.021815 -0.999762 0.000000
vn 0.021815 -0.999762 0.000000
vn 0.021815 -0.999762 0.000000
vn 0.000000 0.000000 1.000000
vn 0.000000 -0.000000 1.000000
vn 0.000000 0.000000 1.000000
vn 0.000000 0.000000 1.000000
vn 0.000000 0.000000 1.000000
vn 0.000000 0.000000 1.000000
vn 0.000000 0.000000 1.000000
vn 0.000000 0.000000 1.000000
vn 0.000000 0.000000 1.000000
vn 0.000000 0.000000 1.000000
vn 0.000000 -0.000000 1.000000
vn -0.298615 0.000000 0.954374
vn -0.298615 0.000000 0.954374
vn -0.298615 0.000000 -0.954374
vn -0.298615 0.000000 -0.954374
vn 0.000000 0.000000 -1.000000
vn -0.000000 -0.000000 -1.000000
vn 0.000000 0.000000 -1.000000
vn 0.000000 0.000000 -1.000000
vn 0.000000 0.000000 -1.000000
vn 0.000000 0.000000 -1.000000
vn 0.000000 0.000000 -1.000000
vn 0.000000 0.000000 -1.000000
vn 0.000000 0.000000 -1.000000
vn -0.000000 -0.000000 -1.000000
vn -0.000000 0.000000 -1.000000
f 9//1 3//1 7//1
f 27//2 31//2 29//2
f 25//3 27//3 29//3
f 23//4 27//4 25//4
f 19//5 23//5 25//5
f 25//6 3//6 9//6
f 13//7 25//7 9//7
f 19//8 25//8 13//8
f 5//9 1//9 3//9
f 25//10 5//10 3//10
f 11//11 5//11 25//11
f 21//12 11//12 25//12
f 15//13 11//13 21//13
f 17//14 15//14 21//14
f 32//15 26//15 30//15
f 26//16 32//16 28//16
f 24//17 26//17 28//17
f 20//18 26//18 24//18
f 2//19 26//19 4//19
f 18//20 12//20 16//20
f 10//21 8//21 4//21
f 26//22 10//22 4//22
f 14//23 10//23 26//23
f 20//24 14//24 26//24
f 26//25 2//25 6//25
f 12//26 26//26 6//26
f 22//27 26//27 12//27
f 18//28 22//28 12//28
f 22//29 25//29 26//29
f 21//30 25//30 22//30
f 18//31 21//31 22//31
f 17//32 21//32 18//32
f 16//33 17//33 18//33
f 15//34 17//34 16//34
f 12//35 15//35 16//35
f 11//36 15//36 12//36
f 6//37 11//37 12//37
f 5//38 11//38 6//38
f 2//39 5//39 6//39
f 1//40 5//40 2//40
f 4//41 1//41 2//41
f 3//42 1//42 4//42
f 8//43 3//43 4//43
f 7//44 3//44 8//44
f 10//45 7//45 8//45
f 9//46 7//46 10//46
f 14//47 9//47 10//47
f 13//48 9//48 14//48
f 20//49 13//49 14//49
f 19//50 13//50 20//50
f 24//51 19//51 20//51
f 23//52 19//52 24//52
f 28//53 23//53 24//53
f 27//54 23//54 28//54
f 36//55 40//55 39//55
f 35//56 36//56 39//56
f 32//57 36//57 35//57
f 31//58 32//58 35//58
f 28//59 32//59 31//59
f 27//60 28//60 31//60
f 42//61 39//61 40//61
f 41//62 39//62 42//62
f 48//63 41//63 42//63
f 47//64 41//64 48//64
f 50//65 47//65 48//65
f 49//66 47//66 50//66
f 56//67 49//67 50//67
f 55//68 49//68 56//68
f 58//69 55//69 56//69
f 57//70 55//70 58//70
f 54//71 57//71 58//71
f 53//72 57//72 54//72
f 52//73 53//73 54//73
f 51//74 53//74 52//74
f 46//75 51//75 52//75
f 45//76 51//76 46//76
f 44//77 45//77 46//77
f 43//78 45//78 44//78
f 38//79 43//79 44//79
f 37//80 43//80 38//80
f 30//81 26//81 25//81
f 29//82 30//82 25//82
f 34//83 30//83 29//83
f 33//84 34//84 29//84
f 38//85 34//85 33//85
f 37//86 38//86 33//86
f 40//87 36//87 34//87
f 38//88 40//88 34//88
f 42//89 40//89 38//89
f 44//90 42//90 38//90
f 42//91 44//91 46//91
f 52//92 42//92 46//92
f 54//93 42//93 52//93
f 56//94 50//94 48//94
f 42//95 56//95 48//95
f 58//96 56//96 42//96
f 54//97 58//97 42//97
f 34//98 36//98 32//98
f 30//99 34//99 32//99
f 29//100 31//100 35//100
f 33//101 29//101 35//101
f 43//102 51//102 45//102
f 47//103 53//103 41//103
f 41//104 53//104 51//104
f 43//105 41//105 51//105
f 39//106 41//106 43//106
f 37//107 39//107 43//107
f 35//108 39//108 37//108
f 33//109 35//109 37//109
f 53//110 47//110 49//110
f 55//111 53//111 49//111
f 57//112 53//112 55//112
