# Created by FreeCAD <http://www.freecadweb.org>
v -0.018492 -0.003101 -0.004000
v -0.018492 -0.003101 0.004000
v -0.018492 0.003101 -0.004000
v -0.018492 0.003101 0.004000
v -0.016469 -0.008963 -0.004000
v -0.016469 -0.008963 0.004000
v -0.016469 0.008963 -0.004000
v -0.016469 0.008963 0.004000
v -0.012645 0.013845 -0.004000
v -0.012645 0.013845 0.004000
v -0.012645 -0.013845 -0.004000
v -0.012645 -0.013845 0.004000
v -0.007437 -0.017212 -0.004000
v -0.007437 -0.017212 0.004000
v -0.007437 0.017212 -0.004000
v -0.007437 0.017212 0.004000
v -0.001416 -0.018696 -0.004000
v -0.001416 -0.018696 0.004000
v -0.001416 0.018696 -0.004000
v -0.001416 0.018696 0.004000
v 0.004760 -0.018136 -0.004000
v 0.004760 -0.018136 0.004000
v 0.004760 0.018136 -0.004000
v 0.004760 0.018136 0.004000
v 0.010415 0.015591 -0.004000
v 0.010415 0.015591 0.004000
v 0.010415 -0.015591 -0.004000
v 0.010415 -0.015591 0.004000
v 0.141439 -0.012732 -0.004000
v 0.141439 -0.012732 0.004000
v 0.141439 0.012732 -0.004000
v 0.141439 0.012732 0.004000
v 0.160000 -0.012327 -0.010000
v 0.160000 -0.012327 0.010000
v 0.160000 0.012327 -0.010000
v 0.160000 0.012327 0.010000
v 0.175000 -0.012000 -0.010000
v 0.175000 -0.012000 0.010000
v 0.175000 0.012000 -0.010000
v 0.175000 0.012000 0.010000
v 0.179978 -0.013000 -0.010000
v 0.179978 -0.013000 0.010000
v 0.179978 0.013000 -0.010000
v 0.179978 0.013000 0.010000
v 0.184960 -0.012017 -0.010000
v 0.184960 -0.012017 0.010000
v 0.184960 0.012017 -0.010000
v 0.184960 0.012017 0.010000
v 0.189185 -0.009200 -0.010000
v 0.189185 -0.009200 0.010000
v 0.189185 0.009200 -0.010000
v 0.189185 0.009200 0.010000
v 0.192008 0.004980 -0.010000
v 0.192008 0.004980 0.010000
v 0.192008 -0.004980 -0.010000
v 0.192008 -0.004980 0.010000
v 0.193000 0.000000 -0.010000
v 0.193000 0.000000 0.010000
vn 0.410316 0.911943 0.000000
vn 0.410316 0.911943 0.000000
vn 0.090411 0.995905 0.000000
vn 0.090411 0.995905 0.000000
vn -0.239385 0.970925 0.000000
vn -0.239385 0.970925 0.000000
vn -0.542993 0.839737 0.000000
vn -0.542993 0.839737 0.000000
vn -0.787206 0.616691 0.000000
vn -0.787206 0.616691 0.000000
vn -0.945305 0.326186 0.000000
vn -0.945305 0.326186 0.000000
vn -1.000000 0.000000 0.000000
vn -1.000000 0.000000 0.000000
vn -0.945306 -0.326186 0.000000
vn -0.945306 -0.326186 -0.000000
vn -0.787205 -0.616691 0.000000
vn -0.787205 -0.616691 -0.000000
vn -0.542994 -0.839737 0.000000
vn -0.542994 -0.839737 -0.000000
vn -0.239384 -0.970925 0.000000
vn -0.239384 -0.970925 -0.000000
vn 0.090410 -0.995905 0.000000
vn 0.090410 -0.995905 0.000000
vn 0.410316 -0.911943 0.000000
vn 0.410316 -0.911943 0.000000
vn 0.021815 -0.999762 0.000000
vn 0.021815 -0.999762 0.000000
vn 0.021815 -0.999762 0.000000
vn 0.021815 -0.999762 0.000000
vn 0.021815 -0.999762 0.000000
vn 0.021815 -0.999762 0.000000
vn -0.196937 -0.980416 0.000000
vn -0.196937 -0.980416 -0.000000
vn 0.193655 -0.981070 0.000000
vn 0.193655 -0.981070 0.000000
vn 0.554699 -0.832051 0.000000
vn 0.554699 -0.832051 0.000000
vn 0.831120 -0.556093 0.000000
vn 0.831120 -0.556093 0.000000
vn 0.980745 -0.195294 0.000000
vn 0.980745 -0.195294 0.000000
vn 0.980744 0.195297 0.000000
vn 0.980744 0.195297 0.000000
vn 0.831122 0.556091 0.000000
vn 0.831122 0.556091 0.000000
vn 0.554699 0.832051 0.000000
vn 0.554699 0.832051 0.000000
vn 0.193655 0.981070 0.000000
vn 0.193655 0.981070 0.000000
vn -0.196937 0.980416 0.000000
vn -0.196937 0.980416 0.000000
vn 0.021815 0.999762 0.000000
vn 0.021815 0.999762 -0.000000
vn 0.021815 0.999762 0.000000
vn 0.021815 0.999762 -0.000000
vn 0.021815 0.999762 0.000000
vn 0.021815 0.999762 -0.000000
vn 0.000000 0.000000 1.000000
vn 0.000000 0.000000 1.000000
vn 0.000000 0.000000 1.000000
vn -0.000000 0.000000 1.000000
vn 0.000000 0.000000 1.000000
vn 0.000000 -0.000000 1.000000
vn 0.000000 0.000000 1.000000
vn 0.000000 -0.000000 1.000000
vn 0.000000 0.000000 1.000000
vn 0.000000 -0.000000 1.000000
vn 0.000000 0.000000 1.000000
vn 0.000000 0.000000 1.000000
vn -0.000000 0.000000 1.000000
vn -0.000000 0.000000 1.000000
vn 0.000000 0.000000 -1.000000
vn 0.000000 0.000000 -1.000000
vn 0.000000 0.000000 -1.000000
vn 0.000000 0.000000 -1.000000
vn 0.000000 -0.000000 -1.000000
vn 0.000000 0.000000 -1.000000
vn 0.000000 -0.000000 -1.000000
vn 0.000000 0.000000 -1.000000
vn 0.000000 0.000000 -1.000000
vn 0.000000 0.000000 -1.000000
vn 0.000000 0.000000 -1.000000
vn 0.000000 -0.000000 -1.000000
vn 0.000000 -0.000000 -1.000000
vn 0.000000 -0.000000 -1.000000
vn 0.000000 0.000000 -1.000000
vn 0.000000 0.000000 -1.000000
vn 0.000000 0.000000 -1.000000
vn -0.000000 0.000000 -1.000000
vn 0.000000 0.000000 -1.000000
vn -0.000000 0.000000 -1.000000
vn -0.000000 0.000000 -1.000000
vn 0.000000 0.000000 -1.000000
vn 0.000000 0.000000 -1.000000
vn 0.000000 0.000000 -1.000000
vn 0.000000 0.000000 -1.000000
vn -0.307593 0.000000 -0.951518
vn -0.307593 -0.000000 -0.951518
vn -0.307593 0.000000 0.951518
vn -0.307593 0.000000 0.951518
vn 0.000000 0.000000 1.000000
vn 0.000000 0.000000 1.000000
vn -0.000000 0.000000 1.000000
vn 0.000000 0.000000 1.000000
vn 0.000000 0.000000 1.000000
vn 0.000000 0.000000 1.000000
vn 0.000000 0.000000 1.000000
vn 0.000000 0.000000 1.000000
vn 0.000000 0.000000 1.000000
vn 0.000000 0.000000 1.000000
vn 0.000000 0.000000 1.000000
f 23//1 26//1 25//1
f 24//2 26//2 23//2
f 19//3 24//3 23//3
f 20//4 24//4 19//4
f 15//5 20//5 19//5
f 16//6 20//6 15//6
f 9//7 16//7 15//7
f 10//8 16//8 9//8
f 7//9 10//9 9//9
f 8//10 10//10 7//10
f 3//11 8//11 7//11
f 4//12 8//12 3//12
f 1//13 4//13 3//13
f 2//14 4//14 1//14
f 5//15 2//15 1//15
f 6//16 2//16 5//16
f 11//17 6//17 5//17
f 12//18 6//18 11//18
f 13//19 12//19 11//19
f 14//20 12//20 13//20
f 17//21 14//21 13//21
f 18//22 14//22 17//22
f 21//23 18//23 17//23
f 22//24 18//24 21//24
f 27//25 22//25 21//25
f 28//26 22//26 27//26
f 33//27 37//27 38//27
f 34//28 33//28 38//28
f 29//29 33//29 34//29
f 30//30 29//30 34//30
f 27//31 29//31 30//31
f 28//32 27//32 30//32
f 41//33 38//33 37//33
f 42//34 38//34 41//34
f 45//35 42//35 41//35
f 46//36 42//36 45//36
f 49//37 46//37 45//37
f 50//38 46//38 49//38
f 55//39 50//39 49//39
f 56//40 50//40 55//40
f 57//41 56//41 55//41
f 58//42 56//42 57//42
f 53//43 58//43 57//43
f 54//44 58//44 53//44
f 51//45 54//45 53//45
f 52//46 54//46 51//46
f 47//47 52//47 51//47
f 48//48 52//48 47//48
f 43//49 48//49 47//49
f 44//50 48//50 43//50
f 39//51 44//51 43//51
f 40//52 44//52 39//52
f 36//53 40//53 39//53
f 35//54 36//54 39//54
f 32//55 36//55 35//55
f 31//56 32//56 35//56
f 26//57 32//57 31//57
f 25//58 26//58 31//58
f 14//59 6//59 12//59
f 28//60 30//60 32//60
f 26//61 28//61 32//61
f 16//62 2//62 20//62
f 20//63 2//63 6//63
f 14//64 20//64 6//64
f 24//65 20//65 14//65
f 18//66 24//66 14//66
f 26//67 24//67 18//67
f 22//68 26//68 18//68
f 28//69 26//69 22//69
f 2//70 16//70 10//70
f 8//71 2//71 10//71
f 4//72 2//72 8//72
f 13//73 21//73 17//73
f 25//74 31//74 29//74
f 27//75 25//75 29//75
f 23//76 25//76 27//76
f 23//77 27//77 21//77
f 13//78 23//78 21//78
f 19//79 23//79 13//79
f 11//80 19//80 13//80
f 7//81 1//81 3//81
f 19//82 11//82 5//82
f 1//83 19//83 5//83
f 15//84 19//84 1//84
f 7//85 15//85 1//85
f 9//86 15//86 7//86
f 35//87 37//87 33//87
f 37//88 35//88 39//88
f 43//89 37//89 39//89
f 47//90 37//90 43//90
f 37//91 47//91 51//91
f 53//92 37//92 51//92
f 57//93 37//93 53//93
f 49//94 45//94 41//94
f 37//95 49//95 41//95
f 55//96 49//96 37//96
f 57//97 55//97 37//97
f 33//98 29//98 31//98
f 35//99 33//99 31//99
f 30//100 34//100 36//100
f 32//101 30//101 36//101
f 40//102 48//102 44//102
f 38//103 52//103 48//103
f 40//104 38//104 48//104
f 34//105 38//105 40//105
f 36//106 34//106 40//106
f 38//107 42//107 46//107
f 50//108 38//108 46//108
f 56//109 38//109 50//109
f 38//110 56//110 58//110
f 54//111 38//111 58//111
f 52//112 38//112 54//112
